<svg xmlns="http://www.w3.org/2000/svg" width="18.595" height="22.211" viewBox="0 0 18.595 22.211">
  <path id="ICON_NOTIFICATION" data-name="ICON NOTIFICATION" d="M2256.232,3856.9a1.267,1.267,0,0,1-.937.657h-16.01a1.267,1.267,0,0,1-.938-.657,2.375,2.375,0,0,1,.737-3.222,2.666,2.666,0,0,0,.568-.621l.023-.039a10.051,10.051,0,0,0,.651-3.291c.013-.145.025-.284.039-.415,0-.011,0-.023,0-.035a11.964,11.964,0,0,1,1.941-5.252,6.159,6.159,0,0,1,3.212-2.4,1.773,1.773,0,0,1,3.535,0,6.171,6.171,0,0,1,3.212,2.4,11.963,11.963,0,0,1,1.94,5.247c0,.018,0,.03,0,.042.013.129.026.268.04.413a10.06,10.06,0,0,0,.649,3.287c.01.018.019.032.026.046a2.665,2.665,0,0,0,.568.618A2.376,2.376,0,0,1,2256.232,3856.9Zm-10.845,2.468h3.738a.468.468,0,0,1,.381.178.626.626,0,0,1,.088.518c0,.009,0,.017,0,.025a2.308,2.308,0,0,1-4.592.083l0-.015a.8.8,0,0,1,.078-.634A.4.4,0,0,1,2245.387,3859.366Z" transform="translate(-2237.991 -3839.995)"/>
</svg>
