<svg xmlns="http://www.w3.org/2000/svg" width="22.731" height="22.731" viewBox="0 0 22.731 22.731">
  <path id="ICON_SETTINGS" data-name="ICON SETTINGS" d="M2587.713,3850.348a2.253,2.253,0,0,0-1.359-2.012,2.417,2.417,0,0,1-1.505-3.64,2.172,2.172,0,0,0-2.849-2.849,2.414,2.414,0,0,1-3.637-1.505,2.172,2.172,0,0,0-4.029,0,2.414,2.414,0,0,1-3.637,1.505,2.172,2.172,0,0,0-2.849,2.849,2.419,2.419,0,0,1-1.5,3.64,2.171,2.171,0,0,0,0,4.027,2.416,2.416,0,0,1,1.5,3.637,2.172,2.172,0,0,0,2.849,2.849,2.415,2.415,0,0,1,3.637,1.507,2.174,2.174,0,0,0,4.029,0,2.414,2.414,0,0,1,3.637-1.507,2.172,2.172,0,0,0,2.849-2.849,2.414,2.414,0,0,1,1.505-3.637A2.259,2.259,0,0,0,2587.713,3850.348Zm-11.365,4.17a4.168,4.168,0,1,1,4.166-4.166A4.166,4.166,0,0,1,2576.348,3854.518Z" transform="translate(-2564.982 -3838.982)"/>
</svg>
