<svg xmlns="http://www.w3.org/2000/svg" width="18.5" height="19.294" viewBox="0 0 18.5 19.294">
  <path id="fingerprint" d="M4.8,17.914a.8.8,0,0,1-.414-1.493c2.848-1.711,2.848-5.384,2.848-7.579a2.412,2.412,0,0,1,4.823,0,.8.8,0,0,1-1.608,0,.8.8,0,0,0-1.608,0c0,2.369,0,6.78-3.629,8.957a.8.8,0,0,1-.413.114Zm3.99,1.142a12.066,12.066,0,0,0,3.184-7.734.8.8,0,0,0-.732-.872.79.79,0,0,0-.869.732A10.382,10.382,0,0,1,7.65,17.92.8.8,0,0,0,8.79,19.053Zm4.18-.15a14.3,14.3,0,0,0,1.212-2.557.8.8,0,0,0-1.512-.545,12.744,12.744,0,0,1-1.076,2.268.8.8,0,0,0,1.375.834Zm1.9-5.088a25.289,25.289,0,0,0,.4-4.977A5.627,5.627,0,0,0,5.456,5.091a.8.8,0,1,0,1.2,1.072,4.019,4.019,0,0,1,7.013,2.679,23.864,23.864,0,0,1-.371,4.67.8.8,0,0,0,.635.942.787.787,0,0,0,.155.015A.8.8,0,0,0,14.872,13.819ZM5.627,8.842a4.019,4.019,0,0,1,.055-.67A.8.8,0,1,0,4.1,7.9a5.6,5.6,0,0,0-.08.938c0,3.734-1.082,5.627-3.215,5.627a.8.8,0,1,0,0,1.608C3.914,16.077,5.627,13.5,5.627,8.842ZM16.64,18.822a23.923,23.923,0,0,0,1.849-9.979A8.734,8.734,0,0,0,17.6,4.989a.8.8,0,0,0-1.447.7,7.154,7.154,0,0,1,.723,3.15,22.436,22.436,0,0,1-1.7,9.314.8.8,0,0,0,.4,1.064.791.791,0,0,0,.332.072.8.8,0,0,0,.728-.471ZM2.412,11.254V8.842A7.243,7.243,0,0,1,9.646,1.608a7.163,7.163,0,0,1,4.341,1.447.8.8,0,0,0,.965-1.286A8.762,8.762,0,0,0,9.646,0,8.853,8.853,0,0,0,.8,8.842v2.412a.8.8,0,0,0,1.608,0Z" transform="translate(0 0)" fill="#fdbd0a"/>
</svg>
