<svg id="eye-crossed" xmlns="http://www.w3.org/2000/svg" width="20.553" height="18.828" viewBox="0 0 20.553 18.828">
  <path id="Path_79819" data-name="Path 79819" d="M19.925,28.686a13.582,13.582,0,0,0-2.886-3.346l2.4-2.4a.856.856,0,0,0-1.21-1.21l-2.607,2.61A10.319,10.319,0,0,0,10.276,22.9a11.34,11.34,0,0,0-9.649,5.79,4.2,4.2,0,0,0,0,4.419,13.582,13.582,0,0,0,2.886,3.346l-2.4,2.4A.856.856,0,0,0,2.306,40.08l.021-.021,2.613-2.613A10.319,10.319,0,0,0,10.276,38.9a11.34,11.34,0,0,0,9.649-5.79A4.2,4.2,0,0,0,19.925,28.686ZM5.14,30.9a5.128,5.128,0,0,1,8.108-4.182L12,27.957a3.379,3.379,0,0,0-1.728-.485A3.424,3.424,0,0,0,6.852,30.9a3.379,3.379,0,0,0,.485,1.728L6.094,33.867A5.1,5.1,0,0,1,5.14,30.9Zm5.136,5.136A5.1,5.1,0,0,1,7.3,35.078l1.243-1.243a3.379,3.379,0,0,0,1.728.485A3.424,3.424,0,0,0,13.7,30.9a3.379,3.379,0,0,0-.485-1.728l1.243-1.243a5.128,5.128,0,0,1-4.182,8.108Z" transform="translate(0.001 -21.492)" fill="#fdbd0a"/>
</svg>
