<svg xmlns="http://www.w3.org/2000/svg" width="16.5" height="19.266" viewBox="0 0 16.5 19.266">
  <path id="Subtraction_4" data-name="Subtraction 4" d="M7.255,19.266H0V12.384L11.409.837c3.283,1.457,5.091,4.581,5.091,8.8a9.647,9.647,0,0,1-2.777,7.273,8.4,8.4,0,0,1-2.947,1.776A10.455,10.455,0,0,1,7.255,19.266ZM0,10.943V9.363L9.1.151a10.04,10.04,0,0,1,1.268.3L0,10.942ZM0,7.921V6.34L6.264,0h.992c.186,0,.373,0,.557.013L0,7.92ZM0,4.9V3.5L3.454,0H4.84L0,4.9ZM0,2.055V0H2.03L0,2.054Z" fill="#fdbd0a"/>
</svg>
