<svg xmlns="http://www.w3.org/2000/svg" width="33" height="31.875" viewBox="0 0 33 31.875">
  <g id="Group_61948" data-name="Group 61948" transform="translate(0 0)">
    <path id="Subtraction_6" data-name="Subtraction 6" d="M-2745.5,1398.493h0a16.474,16.474,0,0,1-7.554-5.963,16.4,16.4,0,0,1-2.945-9.411,16.393,16.393,0,0,1,4.833-11.667,16.392,16.392,0,0,1,11.667-4.833,16.394,16.394,0,0,1,11.668,4.833,16.392,16.392,0,0,1,4.833,11.667,16.665,16.665,0,0,1-.257,2.916,11.4,11.4,0,0,0-6.686-8.922l-15.557,15.744v5.636Zm12.409-22.317h0l-12.409,12.558v2.153l14.137-14.306a13.829,13.829,0,0,0-1.728-.406Zm-3.868-.206h0l-8.541,8.645v2.153l10.653-10.778c-.238-.012-.494-.019-.76-.019Zm-3.831,0h0l-4.71,4.767v1.91l6.6-6.677Zm-4.71,0v2.8l2.767-2.8Z" transform="translate(2756 -1366.618)" fill="#fdbd0a"/>
  </g>
</svg>
