<svg xmlns="http://www.w3.org/2000/svg" width="33" height="31.875" viewBox="0 0 33 31.875">
  <g id="Group_61947" data-name="Group 61947" transform="translate(55 157.493) rotate(180)">
    <path id="Subtraction_7" data-name="Subtraction 7" d="M-2724.5,1472.493h0a16.479,16.479,0,0,1-7.554-5.964,16.4,16.4,0,0,1-2.946-9.411,16.392,16.392,0,0,1,4.833-11.667,16.394,16.394,0,0,1,11.668-4.833,16.391,16.391,0,0,1,11.667,4.833,16.392,16.392,0,0,1,4.833,11.667,16.617,16.617,0,0,1-.292,3.106,11.373,11.373,0,0,0-6.651-8.731l-15.557,15.744v5.255Zm12.409-21.934h0l-12.409,12.558v2.152l14.138-14.3a13.576,13.576,0,0,0-1.729-.406Zm-3.868-.206h0L-2724.5,1459v2.152l10.653-10.778c-.243-.011-.5-.018-.76-.018Zm-3.831,0h0l-4.709,4.766v1.91l6.6-6.676Zm-4.709,0v2.8l2.768-2.8Z" transform="translate(2757 -1315)" fill="#bfba41"/>
  </g>
</svg>
