<svg xmlns="http://www.w3.org/2000/svg" width="20.416" height="15.893" viewBox="0 0 20.416 15.893">
  <g id="eye_2_" data-name="eye (2)" transform="translate(0 -56.735)">
    <circle id="Ellipse_2787" data-name="Ellipse 2787" cx="3.401" cy="3.401" r="3.401" transform="translate(6.807 61.28)" fill="#fdbd0a"/>
    <path id="Path_79825" data-name="Path 79825" d="M19.792,62.487a11.261,11.261,0,0,0-9.584-5.752A11.261,11.261,0,0,0,.624,62.487a4.174,4.174,0,0,0,0,4.389,11.261,11.261,0,0,0,9.584,5.752,11.261,11.261,0,0,0,9.584-5.752A4.174,4.174,0,0,0,19.792,62.487Zm-9.584,7.3a5.1,5.1,0,1,1,5.1-5.1A5.1,5.1,0,0,1,10.208,69.783Z" fill="#fdbd0a"/>
  </g>
</svg>
