<svg xmlns="http://www.w3.org/2000/svg" width="20" height="20" viewBox="0 0 20 20">
  <path id="inbox-in" d="M6.077,5.934A.833.833,0,0,1,7.256,4.756L9.167,6.667V.833a.833.833,0,0,1,1.667,0V6.667l1.911-1.911a.833.833,0,1,1,1.178,1.178L11.178,8.678a1.661,1.661,0,0,1-1.171.487l-.007,0-.008,0a1.661,1.661,0,0,1-1.171-.487L6.078,5.934ZM17.5,10H15a1.668,1.668,0,0,0-1.667,1.667,1.668,1.668,0,0,1-1.667,1.667H8.333a1.668,1.668,0,0,1-1.667-1.667A1.668,1.668,0,0,0,5,10H2.5A2.5,2.5,0,0,0,0,12.5v3.333A4.171,4.171,0,0,0,4.167,20H15.833A4.171,4.171,0,0,0,20,15.833V12.5A2.5,2.5,0,0,0,17.5,10Z" fill="#fdbd0a"/>
</svg>
