<svg xmlns="http://www.w3.org/2000/svg" width="294.956" height="340.243" viewBox="0 0 294.956 340.243">
  <g id="Group_61745" data-name="Group 61745" transform="translate(0.001 -265.998)">
    <path id="Exclusion_3" data-name="Exclusion 3" d="M3842.7,2743.242H3713V2621.715l203.943-203.941a149.528,149.528,0,0,1,36.591,22.673,142.287,142.287,0,0,1,28.8,33.3,153.033,153.033,0,0,1,10.806,20.706,170.4,170.4,0,0,1,8.051,23.446,197.436,197.436,0,0,1,5.027,26.213,236.508,236.508,0,0,1,1.736,29.009,227.387,227.387,0,0,1-3.492,40.523,179.061,179.061,0,0,1-9.958,34.861,145.951,145.951,0,0,1-36.188,53.057,150.492,150.492,0,0,1-52.684,31.366,178.609,178.609,0,0,1-30.577,7.749A202.059,202.059,0,0,1,3842.7,2743.242Zm22.569-79.172a17.263,17.263,0,0,0-4.873.607,7.488,7.488,0,0,0-3.131,1.674,6.61,6.61,0,0,0-1.58,2.308,7.457,7.457,0,0,0-.486,2.727v.594a7.212,7.212,0,0,0,.527,2.78,6.943,6.943,0,0,0,1.66,2.35,7.767,7.767,0,0,0,3.187,1.687,17.289,17.289,0,0,0,4.86.608h1.539a21.6,21.6,0,0,0,4.361-.391,10.38,10.38,0,0,0,2.9-.972,5.947,5.947,0,0,0,1.674-1.364,4.178,4.178,0,0,0,.838-1.444,4.872,4.872,0,0,0,.188-1.337v-.027h-5.94a.937.937,0,0,1-.135.338,2.455,2.455,0,0,1-.418.459,3.2,3.2,0,0,1-.8.513,5.71,5.71,0,0,1-1.364.391,11.125,11.125,0,0,1-2.011.163h-.027a7.436,7.436,0,0,1-3.551-.709,3.054,3.054,0,0,1-1.579-2.127h15.9v-1a7,7,0,0,0-2.524-5.873c-1.675-1.3-4.223-1.957-7.573-1.957Zm-39.2,3.347h.135a12.225,12.225,0,0,1,2.538.2,2.266,2.266,0,0,1,1.067.418.88.88,0,0,1,.175.567c0,.43-.309.684-.918.756l-6.642.621a9.789,9.789,0,0,0-4.684,1.323,3.514,3.514,0,0,0-1.417,3.025v.189a4.221,4.221,0,0,0,1.661,3.4,8.009,8.009,0,0,0,5.089,1.35h.351a11.242,11.242,0,0,0,4.428-.715,6.11,6.11,0,0,0,2.294-1.553,2.119,2.119,0,0,0,2.3,2h4.886v-3.942h-.783a.659.659,0,0,1-.756-.729v-5.562a6.866,6.866,0,0,0-.108-1.323,3.222,3.222,0,0,0-.621-1.228,3.718,3.718,0,0,0-1.431-1.121,10.778,10.778,0,0,0-2.646-.729,25.075,25.075,0,0,0-4.157-.3h-1.486a20.788,20.788,0,0,0-4.009.337,9.037,9.037,0,0,0-2.551.824,4.119,4.119,0,0,0-1.377,1.215,3.542,3.542,0,0,0-.622,1.282,6.672,6.672,0,0,0-.108,1.255v.054h5.589a1.886,1.886,0,0,1,.067-.365,1.679,1.679,0,0,1,.271-.4,1.464,1.464,0,0,1,.593-.433,6.111,6.111,0,0,1,1.107-.284A10.133,10.133,0,0,1,3826.062,2667.418Zm-46.9-8.5,8.262,20.088h6.939l4.562-13.443v0L3803.76,2679h6.345l8.127-20.088h-6.183l-5.076,13.419-4.59-13.419h-6.7l-4.482,13.824-5.183-13.824Zm68.148,0V2679h6.021v-20.088Zm-8.559,0V2679h6.021v-20.088Zm-86.211,0V2679h13.338a25.84,25.84,0,0,0,5.967-.622,14,14,0,0,0,4.1-1.566,8.549,8.549,0,0,0,2.47-2.294,8.071,8.071,0,0,0,1.282-2.606,10.747,10.747,0,0,0,.324-2.686v-.811a9.236,9.236,0,0,0-1.079-4.455,6.25,6.25,0,0,0-1.647-1.985,12.832,12.832,0,0,0-2.591-1.592,14.527,14.527,0,0,0-3.78-1.094,31.145,31.145,0,0,0-5.077-.378Zm128.061,9.558v6.4c0,2.741,1.208,4.131,3.591,4.131h5.211v-4h-1.648a1.2,1.2,0,0,1-.972-.311,1.555,1.555,0,0,1-.243-.958v-5.265h2.863v-4h-2.863v-4.239h-5.94v4.239h-2.835v4Zm8.187-42.937a33.318,33.318,0,0,0-5.487.418,19.694,19.694,0,0,0-4.139,1.1,11.8,11.8,0,0,0-2.9,1.674,9.879,9.879,0,0,0-1.937,1.984,8.939,8.939,0,0,0-1.117,2.185,11.02,11.02,0,0,0-.542,2.109,14.477,14.477,0,0,0-.124,1.936v.93a14.628,14.628,0,0,0,.124,1.922,10.958,10.958,0,0,0,.542,2.124,9.238,9.238,0,0,0,1.117,2.2,9.854,9.854,0,0,0,1.952,2.015,12.364,12.364,0,0,0,2.9,1.706,19.4,19.4,0,0,0,4.123,1.132,32.175,32.175,0,0,0,5.487.434h1.334a31.9,31.9,0,0,0,5.471-.434,19.4,19.4,0,0,0,4.108-1.132,12.353,12.353,0,0,0,2.9-1.706,9.494,9.494,0,0,0,1.937-2.015,10.067,10.067,0,0,0,1.116-2.2,10.324,10.324,0,0,0,.557-2.124,14.476,14.476,0,0,0,.125-1.922v-.93a14.7,14.7,0,0,0-.125-1.952,10.051,10.051,0,0,0-.557-2.108,9.427,9.427,0,0,0-1.132-2.17,9.9,9.9,0,0,0-1.938-1.984,11.754,11.754,0,0,0-2.9-1.674,19.688,19.688,0,0,0-4.107-1.1,32.739,32.739,0,0,0-5.456-.418Zm-106.671,15.283v.341a8.714,8.714,0,0,0,.232,2.046,6.77,6.77,0,0,0,1.054,2.155,7.056,7.056,0,0,0,2.216,2.03,14.038,14.038,0,0,0,3.968,1.427,27.336,27.336,0,0,0,6.014.589h2.139a33.5,33.5,0,0,0,5.843-.45,15.205,15.205,0,0,0,3.937-1.163,6.907,6.907,0,0,0,2.31-1.766,5.733,5.733,0,0,0,1.148-2.062,8.591,8.591,0,0,0,.279-2.279v-.433a5.478,5.478,0,0,0-2.867-5.1c-1.9-1.079-5.038-1.668-9.316-1.751l-3.875-.061a15.825,15.825,0,0,1-3.457-.342,3.29,3.29,0,0,1-1.549-.682,1.407,1.407,0,0,1-.326-.96,1.5,1.5,0,0,1,.294-.977,3.549,3.549,0,0,1,1.691-.682,18.744,18.744,0,0,1,4-.326h.5a18.268,18.268,0,0,1,2.991.216,9.159,9.159,0,0,1,1.938.5,3.083,3.083,0,0,1,1.053.714,2.677,2.677,0,0,1,.512.7,2.977,2.977,0,0,1,.17.636h7.5v-.311a6.309,6.309,0,0,0-.341-2.092,5.769,5.769,0,0,0-1.255-1.969,7.577,7.577,0,0,0-2.356-1.674,15.823,15.823,0,0,0-3.86-1.116,32.125,32.125,0,0,0-5.581-.434h-2.138a30.2,30.2,0,0,0-5.332.418,14.734,14.734,0,0,0-3.642,1.069,6.885,6.885,0,0,0-2.186,1.6,5.086,5.086,0,0,0-1.115,1.891,7.3,7.3,0,0,0-.279,2.062v.28a5.424,5.424,0,0,0,2.813,4.913c1.867,1.121,4.707,1.742,8.44,1.845l3.968.094a20.232,20.232,0,0,1,3.936.386,3.521,3.521,0,0,1,1.736.76,1.758,1.758,0,0,1,.372,1.179,1.848,1.848,0,0,1-.217.914,2.237,2.237,0,0,1-.867.76,6.19,6.19,0,0,1-2.078.573,26.494,26.494,0,0,1-3.6.2h-.435a10.964,10.964,0,0,1-5.014-.914,3.221,3.221,0,0,1-1.837-2.743Zm67.022,0h9.424a5.637,5.637,0,0,1,3.719.962,3.961,3.961,0,0,1,1.085,3.1v2.666a2.406,2.406,0,0,0,.341,1.458h7.347v-.155a6.265,6.265,0,0,1-.433-2.821v-3.38a4.888,4.888,0,0,0-1.209-3.425,6.679,6.679,0,0,0-3.162-1.876c2.839-.925,4.279-2.624,4.279-5.052v-.373a4.911,4.911,0,0,0-2.5-4.486c-1.661-.992-4.188-1.5-7.51-1.5h-18.6V2649h7.223v-8.183Zm-90.21,3.968h13.981l2.17,4.216h7.781l-12.338-23.063h-9.362L3749.506,2649h7.346l2.077-4.215Zm160.766-18.848V2649h15.313a29.681,29.681,0,0,0,6.851-.713,16.085,16.085,0,0,0,4.712-1.8,9.85,9.85,0,0,0,2.838-2.635,9.286,9.286,0,0,0,1.471-2.991,12.339,12.339,0,0,0,.372-3.085v-.929a10.631,10.631,0,0,0-1.24-5.115,7.133,7.133,0,0,0-1.891-2.278,14.612,14.612,0,0,0-2.977-1.83,16.716,16.716,0,0,0-4.339-1.255,35.774,35.774,0,0,0-5.828-.433Zm-10.758,0V2649h7.224v-23.063Zm-86.892,5.456V2649h7.285v-17.607h9.951v-5.456h-27.156v5.456Zm2.638,44.611a3.333,3.333,0,0,1-2.025-.486,1.444,1.444,0,0,1-.622-1.161v-.027a.951.951,0,0,1,.487-.878,5.333,5.333,0,0,1,1.7-.472l5.751-.891v.459a2.98,2.98,0,0,1-1.485,2.4A6.456,6.456,0,0,1,3824.685,2676Zm-59.319-1.836h-6.534v-10.5h6.534a11.452,11.452,0,0,1,6.054,1.289,4.3,4.3,0,0,1,2.019,3.868v.162a4.331,4.331,0,0,1-2.019,3.888A11.4,11.4,0,0,1,3765.366,2674.169Zm105.57-4.266h-9.72c.484-1.631,2.11-2.458,4.833-2.458h.027c2.794,0,4.429.826,4.859,2.456Zm18.5-26.109a16.675,16.675,0,0,1-4.744-.589,6.463,6.463,0,0,1-2.884-1.581,6.356,6.356,0,0,1-1.317-1.983,5.791,5.791,0,0,1-.387-2.108v-.372a5.061,5.061,0,0,1,2.333-4.533c1.548-1,3.9-1.511,7-1.511a18.183,18.183,0,0,1,3.967.386,9.516,9.516,0,0,1,2.7.977,5.451,5.451,0,0,1,1.612,1.426,5.032,5.032,0,0,1,.837,1.612,6.068,6.068,0,0,1,.217,1.643v.435a5.776,5.776,0,0,1-.387,2.109,5.974,5.974,0,0,1-1.349,1.967,6.678,6.678,0,0,1-2.9,1.55A16.789,16.789,0,0,1,3889.44,2643.793Zm44.98-.341h-7.5v-12.059h7.5c3.075,0,5.414.5,6.952,1.48a4.939,4.939,0,0,1,2.317,4.44v.186a4.973,4.973,0,0,1-2.317,4.464C3939.835,2642.952,3937.5,2643.452,3934.42,2643.452Zm-164.176-3.875H3761.5l4.277-8.649,4.463,8.648Zm89.839-3.875h-10.944v-4.526h10.944a3.3,3.3,0,0,1,2.2.621,2.04,2.04,0,0,1,.714,1.611v.031a2.079,2.079,0,0,1-.714,1.644A3.307,3.307,0,0,1,3860.083,2635.7ZM3713,2596.26h0v-27.912l162.677-162.679a181.368,181.368,0,0,1,22.655,5.26Zm0-53.371h0v-27.915L3824.972,2403H3842.7c3.311,0,6.661.079,9.958.235Zm0-53.373h0V2464.74l61.74-61.741h24.776Zm0-50.233v0h0V2403h36.283L3713,2439.281Z" transform="translate(-3713.001 -2137.001)" fill="#fdbd0a"/>
  </g>
</svg>
